<mxfile host="app.diagrams.net" agent="Mozilla/5.0 (X11; Linux x86_64) AppleWebKit/537.36 (KHTML, like Gecko) Chrome/131.0.0.0 Safari/537.36" version="25.0.3">
  <diagram id="Ht1M8jgEwFfnCIfOTk4-" name="Page-1">
    <mxGraphModel dx="1693" dy="965" grid="1" gridSize="10" guides="1" tooltips="1" connect="1" arrows="1" fold="1" page="1" pageScale="1" pageWidth="1169" pageHeight="827" math="0" shadow="0">
      <root>
        <mxCell id="0" />
        <mxCell id="1" parent="0" />
        <mxCell id="xhqMCZKZk4TDCaaSv1w_-1" value="&lt;div&gt;Data Store&lt;/div&gt;" style="outlineConnect=0;fontColor=#232F3E;gradientColor=#60A337;gradientDirection=north;fillColor=#277116;strokeColor=#ffffff;dashed=0;verticalLabelPosition=bottom;verticalAlign=top;align=center;html=1;fontSize=12;fontStyle=0;aspect=fixed;shape=mxgraph.aws4.resourceIcon;resIcon=mxgraph.aws4.s3;labelBackgroundColor=#ffffff;" vertex="1" parent="1">
          <mxGeometry x="40" y="353" width="54" height="54" as="geometry" />
        </mxCell>
        <mxCell id="xhqMCZKZk4TDCaaSv1w_-32" style="edgeStyle=orthogonalEdgeStyle;rounded=0;orthogonalLoop=1;jettySize=auto;html=1;entryX=0;entryY=0.5;entryDx=0;entryDy=0;" edge="1" parent="1" source="xhqMCZKZk4TDCaaSv1w_-96" target="xhqMCZKZk4TDCaaSv1w_-29">
          <mxGeometry relative="1" as="geometry">
            <mxPoint x="718" y="399" as="sourcePoint" />
          </mxGeometry>
        </mxCell>
        <mxCell id="xhqMCZKZk4TDCaaSv1w_-33" value="evaluation&lt;div&gt;report&lt;/div&gt;" style="edgeLabel;html=1;align=center;verticalAlign=middle;resizable=0;points=[];fontSize=12;" vertex="1" connectable="0" parent="xhqMCZKZk4TDCaaSv1w_-32">
          <mxGeometry x="0.1304" y="3" relative="1" as="geometry">
            <mxPoint x="1" y="-17" as="offset" />
          </mxGeometry>
        </mxCell>
        <mxCell id="xhqMCZKZk4TDCaaSv1w_-25" style="edgeStyle=orthogonalEdgeStyle;rounded=0;orthogonalLoop=1;jettySize=auto;html=1;fontSize=12;" edge="1" parent="1" source="xhqMCZKZk4TDCaaSv1w_-94" target="xhqMCZKZk4TDCaaSv1w_-96">
          <mxGeometry relative="1" as="geometry">
            <mxPoint x="679" y="438" as="targetPoint" />
            <Array as="points">
              <mxPoint x="305" y="490" />
              <mxPoint x="679" y="490" />
            </Array>
          </mxGeometry>
        </mxCell>
        <mxCell id="xhqMCZKZk4TDCaaSv1w_-26" value="test data" style="edgeLabel;html=1;align=center;verticalAlign=middle;resizable=0;points=[];fontSize=12;" vertex="1" connectable="0" parent="xhqMCZKZk4TDCaaSv1w_-25">
          <mxGeometry x="0.01" relative="1" as="geometry">
            <mxPoint x="117" as="offset" />
          </mxGeometry>
        </mxCell>
        <mxCell id="xhqMCZKZk4TDCaaSv1w_-35" value="" style="edgeStyle=orthogonalEdgeStyle;rounded=0;orthogonalLoop=1;jettySize=auto;html=1;" edge="1" parent="1" source="xhqMCZKZk4TDCaaSv1w_-29" target="xhqMCZKZk4TDCaaSv1w_-34">
          <mxGeometry relative="1" as="geometry" />
        </mxCell>
        <mxCell id="xhqMCZKZk4TDCaaSv1w_-36" value="accuracy below&amp;nbsp;&lt;div&gt;threshold&lt;/div&gt;" style="edgeLabel;html=1;align=center;verticalAlign=middle;resizable=0;points=[];fontSize=12;" vertex="1" connectable="0" parent="xhqMCZKZk4TDCaaSv1w_-35">
          <mxGeometry x="-0.0789" relative="1" as="geometry">
            <mxPoint as="offset" />
          </mxGeometry>
        </mxCell>
        <mxCell id="xhqMCZKZk4TDCaaSv1w_-44" style="edgeStyle=orthogonalEdgeStyle;rounded=0;orthogonalLoop=1;jettySize=auto;html=1;" edge="1" parent="1" source="xhqMCZKZk4TDCaaSv1w_-29" target="xhqMCZKZk4TDCaaSv1w_-116">
          <mxGeometry relative="1" as="geometry">
            <mxPoint x="1039.9999999999998" y="415.0000000000001" as="targetPoint" />
          </mxGeometry>
        </mxCell>
        <mxCell id="xhqMCZKZk4TDCaaSv1w_-50" value="&lt;span style=&quot;font-size: 12px;&quot;&gt;accuracy&lt;/span&gt;&lt;div style=&quot;font-size: 12px;&quot;&gt;above&lt;/div&gt;&lt;div style=&quot;font-size: 12px;&quot;&gt;threshold&lt;/div&gt;" style="edgeLabel;html=1;align=center;verticalAlign=middle;resizable=0;points=[];" vertex="1" connectable="0" parent="xhqMCZKZk4TDCaaSv1w_-44">
          <mxGeometry x="-0.3778" y="-4" relative="1" as="geometry">
            <mxPoint x="4" y="-4" as="offset" />
          </mxGeometry>
        </mxCell>
        <mxCell id="xhqMCZKZk4TDCaaSv1w_-29" value="Condition" style="rhombus;whiteSpace=wrap;html=1;fontColor=#000000;fillColor=#ffffc0;strokeColor=#ff0000;" vertex="1" parent="1">
          <mxGeometry x="840" y="345" width="100" height="70" as="geometry" />
        </mxCell>
        <mxCell id="xhqMCZKZk4TDCaaSv1w_-34" value="&lt;font color=&quot;#ffffff&quot;&gt;End&lt;/font&gt;" style="ellipse;html=1;shape=endState;fillColor=#000000;strokeColor=#ff0000;fontStyle=1" vertex="1" parent="1">
          <mxGeometry x="860" y="470" width="60" height="60" as="geometry" />
        </mxCell>
        <mxCell id="xhqMCZKZk4TDCaaSv1w_-54" style="edgeStyle=orthogonalEdgeStyle;rounded=0;orthogonalLoop=1;jettySize=auto;html=1;exitX=1;exitY=0.75;exitDx=0;exitDy=0;" edge="1" parent="1" source="xhqMCZKZk4TDCaaSv1w_-94">
          <mxGeometry relative="1" as="geometry">
            <mxPoint x="368" y="399" as="sourcePoint" />
            <mxPoint x="1089.9655172413795" y="480" as="targetPoint" />
            <Array as="points">
              <mxPoint x="350" y="414" />
              <mxPoint x="350" y="570" />
              <mxPoint x="1090" y="570" />
            </Array>
          </mxGeometry>
        </mxCell>
        <mxCell id="xhqMCZKZk4TDCaaSv1w_-55" value="&lt;span style=&quot;font-size: 12px;&quot;&gt;features transformers&lt;/span&gt;" style="edgeLabel;html=1;align=center;verticalAlign=middle;resizable=0;points=[];" vertex="1" connectable="0" parent="xhqMCZKZk4TDCaaSv1w_-54">
          <mxGeometry x="0.0972" relative="1" as="geometry">
            <mxPoint as="offset" />
          </mxGeometry>
        </mxCell>
        <mxCell id="xhqMCZKZk4TDCaaSv1w_-61" value="" style="edgeStyle=orthogonalEdgeStyle;rounded=0;orthogonalLoop=1;jettySize=auto;html=1;" edge="1" parent="1" source="xhqMCZKZk4TDCaaSv1w_-116" target="xhqMCZKZk4TDCaaSv1w_-118">
          <mxGeometry relative="1" as="geometry">
            <mxPoint x="1320" y="415.0344827586207" as="sourcePoint" />
            <mxPoint x="1397" y="401.9310344827586" as="targetPoint" />
            <Array as="points">
              <mxPoint x="1450" y="404" />
              <mxPoint x="1450" y="480" />
            </Array>
          </mxGeometry>
        </mxCell>
        <mxCell id="xhqMCZKZk4TDCaaSv1w_-62" value="inference&amp;nbsp;&lt;div&gt;model&lt;/div&gt;" style="edgeLabel;html=1;align=center;verticalAlign=middle;resizable=0;points=[];fontSize=12;" vertex="1" connectable="0" parent="xhqMCZKZk4TDCaaSv1w_-61">
          <mxGeometry x="0.026" y="3" relative="1" as="geometry">
            <mxPoint x="-2" y="-6" as="offset" />
          </mxGeometry>
        </mxCell>
        <mxCell id="xhqMCZKZk4TDCaaSv1w_-87" value="" style="edgeStyle=orthogonalEdgeStyle;rounded=0;orthogonalLoop=1;jettySize=auto;html=1;exitX=1;exitY=0.5;exitDx=0;exitDy=0;" edge="1" parent="1" source="xhqMCZKZk4TDCaaSv1w_-94" target="xhqMCZKZk4TDCaaSv1w_-95">
          <mxGeometry relative="1" as="geometry">
            <mxPoint x="460" y="399" as="targetPoint" />
            <Array as="points">
              <mxPoint x="375" y="379" />
              <mxPoint x="375" y="380" />
            </Array>
          </mxGeometry>
        </mxCell>
        <mxCell id="xhqMCZKZk4TDCaaSv1w_-88" value="train&lt;div&gt;data&lt;/div&gt;" style="edgeLabel;html=1;align=center;verticalAlign=middle;resizable=0;points=[];fontSize=12;" vertex="1" connectable="0" parent="xhqMCZKZk4TDCaaSv1w_-87">
          <mxGeometry x="0.1087" y="4" relative="1" as="geometry">
            <mxPoint x="-4" y="1" as="offset" />
          </mxGeometry>
        </mxCell>
        <mxCell id="xhqMCZKZk4TDCaaSv1w_-80" style="edgeStyle=orthogonalEdgeStyle;rounded=0;orthogonalLoop=1;jettySize=auto;html=1;" edge="1" parent="1" source="xhqMCZKZk4TDCaaSv1w_-1" target="xhqMCZKZk4TDCaaSv1w_-94">
          <mxGeometry relative="1" as="geometry" />
        </mxCell>
        <mxCell id="xhqMCZKZk4TDCaaSv1w_-81" value="&lt;span style=&quot;font-size: 12px;&quot;&gt;available&lt;/span&gt;&lt;div&gt;&lt;span style=&quot;font-size: 12px;&quot;&gt;data&lt;/span&gt;&lt;/div&gt;" style="edgeLabel;html=1;align=center;verticalAlign=middle;resizable=0;points=[];" vertex="1" connectable="0" parent="xhqMCZKZk4TDCaaSv1w_-80">
          <mxGeometry x="-0.5259" y="-3" relative="1" as="geometry">
            <mxPoint x="15" y="-5" as="offset" />
          </mxGeometry>
        </mxCell>
        <mxCell id="xhqMCZKZk4TDCaaSv1w_-111" value="" style="edgeStyle=orthogonalEdgeStyle;rounded=0;orthogonalLoop=1;jettySize=auto;html=1;entryX=0;entryY=0.5;entryDx=0;entryDy=0;" edge="1" parent="1" source="xhqMCZKZk4TDCaaSv1w_-95" target="xhqMCZKZk4TDCaaSv1w_-96">
          <mxGeometry relative="1" as="geometry" />
        </mxCell>
        <mxCell id="xhqMCZKZk4TDCaaSv1w_-112" value="trained&lt;div&gt;model&lt;/div&gt;" style="edgeLabel;html=1;align=center;verticalAlign=middle;resizable=0;points=[];fontSize=12;" vertex="1" connectable="0" parent="xhqMCZKZk4TDCaaSv1w_-111">
          <mxGeometry x="0.0407" y="-2" relative="1" as="geometry">
            <mxPoint x="-5" y="-2" as="offset" />
          </mxGeometry>
        </mxCell>
        <mxCell id="xhqMCZKZk4TDCaaSv1w_-114" style="edgeStyle=orthogonalEdgeStyle;rounded=0;orthogonalLoop=1;jettySize=auto;html=1;entryX=0.5;entryY=1;entryDx=0;entryDy=0;" edge="1" parent="1" source="xhqMCZKZk4TDCaaSv1w_-95">
          <mxGeometry relative="1" as="geometry">
            <mxPoint x="1180" y="480" as="targetPoint" />
            <Array as="points">
              <mxPoint x="495" y="540" />
              <mxPoint x="1180" y="540" />
            </Array>
          </mxGeometry>
        </mxCell>
        <mxCell id="xhqMCZKZk4TDCaaSv1w_-115" value="trained model" style="edgeLabel;html=1;align=center;verticalAlign=middle;resizable=0;points=[];fontSize=12;" vertex="1" connectable="0" parent="xhqMCZKZk4TDCaaSv1w_-114">
          <mxGeometry x="-0.0699" y="-1" relative="1" as="geometry">
            <mxPoint as="offset" />
          </mxGeometry>
        </mxCell>
        <mxCell id="xhqMCZKZk4TDCaaSv1w_-138" style="edgeStyle=orthogonalEdgeStyle;rounded=0;orthogonalLoop=1;jettySize=auto;html=1;" edge="1" parent="1" source="xhqMCZKZk4TDCaaSv1w_-94">
          <mxGeometry relative="1" as="geometry">
            <mxPoint x="1500" y="290" as="targetPoint" />
            <Array as="points">
              <mxPoint x="265" y="290" />
            </Array>
          </mxGeometry>
        </mxCell>
        <mxCell id="xhqMCZKZk4TDCaaSv1w_-139" value="test data" style="edgeLabel;html=1;align=center;verticalAlign=middle;resizable=0;points=[];fontSize=12;" vertex="1" connectable="0" parent="xhqMCZKZk4TDCaaSv1w_-138">
          <mxGeometry x="-0.1776" y="3" relative="1" as="geometry">
            <mxPoint as="offset" />
          </mxGeometry>
        </mxCell>
        <mxCell id="xhqMCZKZk4TDCaaSv1w_-159" value="" style="edgeStyle=orthogonalEdgeStyle;rounded=0;orthogonalLoop=1;jettySize=auto;html=1;exitX=0.467;exitY=1.011;exitDx=0;exitDy=0;exitPerimeter=0;" edge="1" parent="1" source="xhqMCZKZk4TDCaaSv1w_-94" target="xhqMCZKZk4TDCaaSv1w_-156">
          <mxGeometry relative="1" as="geometry" />
        </mxCell>
        <mxCell id="xhqMCZKZk4TDCaaSv1w_-160" value="train data" style="edgeLabel;html=1;align=center;verticalAlign=middle;resizable=0;points=[];fontSize=12;" vertex="1" connectable="0" parent="xhqMCZKZk4TDCaaSv1w_-159">
          <mxGeometry x="-0.2536" relative="1" as="geometry">
            <mxPoint y="2" as="offset" />
          </mxGeometry>
        </mxCell>
        <mxCell id="xhqMCZKZk4TDCaaSv1w_-148" value="" style="edgeStyle=orthogonalEdgeStyle;rounded=0;orthogonalLoop=1;jettySize=auto;html=1;" edge="1" parent="1" source="xhqMCZKZk4TDCaaSv1w_-130" target="xhqMCZKZk4TDCaaSv1w_-143">
          <mxGeometry relative="1" as="geometry" />
        </mxCell>
        <mxCell id="xhqMCZKZk4TDCaaSv1w_-149" value="Transform&lt;div&gt;output&lt;/div&gt;" style="edgeLabel;html=1;align=center;verticalAlign=middle;resizable=0;points=[];" vertex="1" connectable="0" parent="xhqMCZKZk4TDCaaSv1w_-148">
          <mxGeometry x="-0.3119" y="-2" relative="1" as="geometry">
            <mxPoint x="7" y="-2" as="offset" />
          </mxGeometry>
        </mxCell>
        <mxCell id="xhqMCZKZk4TDCaaSv1w_-150" style="edgeStyle=orthogonalEdgeStyle;rounded=0;orthogonalLoop=1;jettySize=auto;html=1;entryX=-0.006;entryY=0.625;entryDx=0;entryDy=0;entryPerimeter=0;" edge="1" parent="1" source="xhqMCZKZk4TDCaaSv1w_-116" target="xhqMCZKZk4TDCaaSv1w_-130">
          <mxGeometry relative="1" as="geometry">
            <Array as="points">
              <mxPoint x="1450" y="404" />
              <mxPoint x="1450" y="334" />
            </Array>
          </mxGeometry>
        </mxCell>
        <mxCell id="xhqMCZKZk4TDCaaSv1w_-154" value="&lt;span style=&quot;font-size: 12px;&quot;&gt;inference&amp;nbsp;&lt;/span&gt;&lt;div style=&quot;font-size: 12px;&quot;&gt;model&lt;/div&gt;" style="edgeLabel;html=1;align=center;verticalAlign=middle;resizable=0;points=[];" vertex="1" connectable="0" parent="xhqMCZKZk4TDCaaSv1w_-150">
          <mxGeometry x="0.2197" y="-2" relative="1" as="geometry">
            <mxPoint x="-1" y="13" as="offset" />
          </mxGeometry>
        </mxCell>
        <mxCell id="xhqMCZKZk4TDCaaSv1w_-199" style="edgeStyle=orthogonalEdgeStyle;rounded=0;orthogonalLoop=1;jettySize=auto;html=1;entryX=0.5;entryY=1;entryDx=0;entryDy=0;" edge="1" parent="1" source="xhqMCZKZk4TDCaaSv1w_-143" target="xhqMCZKZk4TDCaaSv1w_-195">
          <mxGeometry relative="1" as="geometry">
            <Array as="points">
              <mxPoint x="2000" y="307" />
              <mxPoint x="2000" y="940" />
              <mxPoint x="1502" y="940" />
            </Array>
          </mxGeometry>
        </mxCell>
        <mxCell id="xhqMCZKZk4TDCaaSv1w_-202" value="baseline&lt;div&gt;(statistics&lt;/div&gt;&lt;div&gt;and&lt;/div&gt;&lt;div&gt;constraints)&lt;/div&gt;" style="edgeLabel;html=1;align=center;verticalAlign=middle;resizable=0;points=[];fontSize=12;" vertex="1" connectable="0" parent="xhqMCZKZk4TDCaaSv1w_-199">
          <mxGeometry x="-0.0202" y="2" relative="1" as="geometry">
            <mxPoint as="offset" />
          </mxGeometry>
        </mxCell>
        <mxCell id="xhqMCZKZk4TDCaaSv1w_-194" style="edgeStyle=orthogonalEdgeStyle;rounded=0;orthogonalLoop=1;jettySize=auto;html=1;" edge="1" parent="1" source="xhqMCZKZk4TDCaaSv1w_-156" target="xhqMCZKZk4TDCaaSv1w_-189">
          <mxGeometry relative="1" as="geometry">
            <Array as="points">
              <mxPoint x="250" y="730" />
            </Array>
          </mxGeometry>
        </mxCell>
        <mxCell id="xhqMCZKZk4TDCaaSv1w_-203" value="&lt;span style=&quot;color: rgba(0, 0, 0, 0); font-family: monospace; font-size: 0px; text-align: start; background-color: rgb(251, 251, 251);&quot;&gt;%3CmxGraphModel%3E%3Croot%3E%3CmxCell%20id%3D%220%22%2F%3E%3CmxCell%20id%3D%221%22%20parent%3D%220%22%2F%3E%3CmxCell%20id%3D%222%22%20value%3D%22baseline%26lt%3Bdiv%26gt%3B(statistics%26lt%3B%2Fdiv%26gt%3B%26lt%3Bdiv%26gt%3Band%26lt%3B%2Fdiv%26gt%3B%26lt%3Bdiv%26gt%3Bconstraints)%26lt%3B%2Fdiv%26gt%3B%22%20style%3D%22edgeLabel%3Bhtml%3D1%3Balign%3Dcenter%3BverticalAlign%3Dmiddle%3Bresizable%3D0%3Bpoints%3D%5B%5D%3B%22%20vertex%3D%221%22%20connectable%3D%220%22%20parent%3D%221%22%3E%3CmxGeometry%20x%3D%221992%22%20y%3D%22811.5%22%20as%3D%22geometry%22%2F%3E%3C%2FmxCell%3E%3C%2Froot%3E%3C%2FmxGraphModel%3E&lt;/span&gt;" style="edgeLabel;html=1;align=center;verticalAlign=middle;resizable=0;points=[];" vertex="1" connectable="0" parent="xhqMCZKZk4TDCaaSv1w_-194">
          <mxGeometry x="0.5771" y="1" relative="1" as="geometry">
            <mxPoint as="offset" />
          </mxGeometry>
        </mxCell>
        <mxCell id="xhqMCZKZk4TDCaaSv1w_-204" value="baseline&lt;div&gt;(statistics&lt;/div&gt;&lt;div&gt;and&lt;/div&gt;&lt;div&gt;constraints)&lt;/div&gt;" style="edgeLabel;html=1;align=center;verticalAlign=middle;resizable=0;points=[];fontSize=12;" vertex="1" connectable="0" parent="xhqMCZKZk4TDCaaSv1w_-194">
          <mxGeometry x="0.6193" y="-4" relative="1" as="geometry">
            <mxPoint as="offset" />
          </mxGeometry>
        </mxCell>
        <mxCell id="xhqMCZKZk4TDCaaSv1w_-169" style="edgeStyle=orthogonalEdgeStyle;rounded=0;orthogonalLoop=1;jettySize=auto;html=1;" edge="1" parent="1" source="xhqMCZKZk4TDCaaSv1w_-161" target="xhqMCZKZk4TDCaaSv1w_-168">
          <mxGeometry relative="1" as="geometry" />
        </mxCell>
        <mxCell id="xhqMCZKZk4TDCaaSv1w_-172" value="Trigger&lt;div&gt;call&lt;/div&gt;" style="edgeLabel;html=1;align=center;verticalAlign=middle;resizable=0;points=[];fontSize=12;" vertex="1" connectable="0" parent="xhqMCZKZk4TDCaaSv1w_-169">
          <mxGeometry x="-0.1148" y="-3" relative="1" as="geometry">
            <mxPoint x="7" y="-3" as="offset" />
          </mxGeometry>
        </mxCell>
        <mxCell id="xhqMCZKZk4TDCaaSv1w_-161" value="EventBridge" style="sketch=0;points=[[0,0,0],[0.25,0,0],[0.5,0,0],[0.75,0,0],[1,0,0],[0,1,0],[0.25,1,0],[0.5,1,0],[0.75,1,0],[1,1,0],[0,0.25,0],[0,0.5,0],[0,0.75,0],[1,0.25,0],[1,0.5,0],[1,0.75,0]];outlineConnect=0;fontColor=#232F3E;fillColor=#E7157B;strokeColor=#ffffff;dashed=0;verticalLabelPosition=bottom;verticalAlign=top;align=center;html=1;fontSize=12;fontStyle=0;aspect=fixed;shape=mxgraph.aws4.resourceIcon;resIcon=mxgraph.aws4.eventbridge;" vertex="1" parent="1">
          <mxGeometry x="1536.25" y="591" width="46.5" height="46.5" as="geometry" />
        </mxCell>
        <mxCell id="xhqMCZKZk4TDCaaSv1w_-162" value="Team" style="sketch=0;outlineConnect=0;fontColor=#232F3E;gradientColor=none;fillColor=#232F3D;strokeColor=none;dashed=0;verticalLabelPosition=bottom;verticalAlign=top;align=center;html=1;fontSize=12;fontStyle=0;aspect=fixed;pointerEvents=1;shape=mxgraph.aws4.authenticated_user;" vertex="1" parent="1">
          <mxGeometry x="1390" y="588.25" width="49.25" height="49.25" as="geometry" />
        </mxCell>
        <mxCell id="xhqMCZKZk4TDCaaSv1w_-163" style="edgeStyle=orthogonalEdgeStyle;rounded=0;orthogonalLoop=1;jettySize=auto;html=1;" edge="1" parent="1" source="xhqMCZKZk4TDCaaSv1w_-162" target="xhqMCZKZk4TDCaaSv1w_-37">
          <mxGeometry relative="1" as="geometry">
            <mxPoint x="1510" y="509" as="targetPoint" />
            <Array as="points">
              <mxPoint x="1415" y="510" />
            </Array>
          </mxGeometry>
        </mxCell>
        <mxCell id="xhqMCZKZk4TDCaaSv1w_-164" value="model approval" style="edgeLabel;html=1;align=center;verticalAlign=middle;resizable=0;points=[];fontSize=12;" vertex="1" connectable="0" parent="xhqMCZKZk4TDCaaSv1w_-163">
          <mxGeometry x="-0.185" y="-4" relative="1" as="geometry">
            <mxPoint x="-13" y="36" as="offset" />
          </mxGeometry>
        </mxCell>
        <mxCell id="xhqMCZKZk4TDCaaSv1w_-177" style="edgeStyle=orthogonalEdgeStyle;rounded=0;orthogonalLoop=1;jettySize=auto;html=1;entryX=0.5;entryY=1;entryDx=0;entryDy=0;exitX=1;exitY=0.5;exitDx=0;exitDy=0;exitPerimeter=0;" edge="1" parent="1" source="xhqMCZKZk4TDCaaSv1w_-168">
          <mxGeometry relative="1" as="geometry">
            <mxPoint x="1842.5" y="540" as="targetPoint" />
          </mxGeometry>
        </mxCell>
        <mxCell id="xhqMCZKZk4TDCaaSv1w_-180" value="Deploy&lt;div&gt;inference&lt;div&gt;model&lt;/div&gt;&lt;/div&gt;" style="edgeLabel;html=1;align=center;verticalAlign=middle;resizable=0;points=[];fontSize=12;" vertex="1" connectable="0" parent="xhqMCZKZk4TDCaaSv1w_-177">
          <mxGeometry x="-0.327" y="-2" relative="1" as="geometry">
            <mxPoint x="24" y="-39" as="offset" />
          </mxGeometry>
        </mxCell>
        <mxCell id="xhqMCZKZk4TDCaaSv1w_-168" value="Lambda function" style="outlineConnect=0;dashed=0;verticalLabelPosition=top;verticalAlign=bottom;align=center;html=1;shape=mxgraph.aws3.lambda_function;fillColor=#5294CF;gradientColor=none;labelPosition=center;" vertex="1" parent="1">
          <mxGeometry x="1710" y="590.18" width="50" height="48.88" as="geometry" />
        </mxCell>
        <mxCell id="xhqMCZKZk4TDCaaSv1w_-173" style="edgeStyle=orthogonalEdgeStyle;rounded=0;orthogonalLoop=1;jettySize=auto;html=1;entryX=0.5;entryY=1;entryDx=0;entryDy=0;entryPerimeter=0;" edge="1" parent="1" source="xhqMCZKZk4TDCaaSv1w_-116" target="xhqMCZKZk4TDCaaSv1w_-168">
          <mxGeometry relative="1" as="geometry">
            <Array as="points">
              <mxPoint x="1215" y="680" />
              <mxPoint x="1735" y="680" />
            </Array>
          </mxGeometry>
        </mxCell>
        <mxCell id="xhqMCZKZk4TDCaaSv1w_-174" value="Inference model ARN" style="edgeLabel;html=1;align=center;verticalAlign=middle;resizable=0;points=[];fontSize=12;" vertex="1" connectable="0" parent="xhqMCZKZk4TDCaaSv1w_-173">
          <mxGeometry x="-0.1067" y="-1" relative="1" as="geometry">
            <mxPoint x="-62" y="-1" as="offset" />
          </mxGeometry>
        </mxCell>
        <mxCell id="xhqMCZKZk4TDCaaSv1w_-187" value="" style="edgeStyle=orthogonalEdgeStyle;rounded=0;orthogonalLoop=1;jettySize=auto;html=1;" edge="1" parent="1" source="xhqMCZKZk4TDCaaSv1w_-183" target="xhqMCZKZk4TDCaaSv1w_-186">
          <mxGeometry relative="1" as="geometry" />
        </mxCell>
        <mxCell id="xhqMCZKZk4TDCaaSv1w_-188" value="trigger&lt;div&gt;call&lt;/div&gt;" style="edgeLabel;html=1;align=center;verticalAlign=middle;resizable=0;points=[];fontSize=12;" vertex="1" connectable="0" parent="xhqMCZKZk4TDCaaSv1w_-187">
          <mxGeometry x="-0.125" y="-2" relative="1" as="geometry">
            <mxPoint y="2" as="offset" />
          </mxGeometry>
        </mxCell>
        <mxCell id="xhqMCZKZk4TDCaaSv1w_-183" value="EventBridge" style="sketch=0;points=[[0,0,0],[0.25,0,0],[0.5,0,0],[0.75,0,0],[1,0,0],[0,1,0],[0.25,1,0],[0.5,1,0],[0.75,1,0],[1,1,0],[0,0.25,0],[0,0.5,0],[0,0.75,0],[1,0.25,0],[1,0.5,0],[1,0.75,0]];outlineConnect=0;fontColor=#232F3E;fillColor=#E7157B;strokeColor=#ffffff;dashed=0;verticalLabelPosition=bottom;verticalAlign=top;align=center;html=1;fontSize=12;fontStyle=0;aspect=fixed;shape=mxgraph.aws4.resourceIcon;resIcon=mxgraph.aws4.eventbridge;" vertex="1" parent="1">
          <mxGeometry x="1845" y="725.3800000000001" width="46.5" height="46.5" as="geometry" />
        </mxCell>
        <mxCell id="xhqMCZKZk4TDCaaSv1w_-184" style="edgeStyle=orthogonalEdgeStyle;rounded=0;orthogonalLoop=1;jettySize=auto;html=1;entryX=1;entryY=0.5;entryDx=0;entryDy=0;entryPerimeter=0;exitX=1;exitY=0.5;exitDx=0;exitDy=0;" edge="1" parent="1" source="xhqMCZKZk4TDCaaSv1w_-277" target="xhqMCZKZk4TDCaaSv1w_-183">
          <mxGeometry relative="1" as="geometry">
            <mxPoint x="1867.4299999999998" y="483.0344827586207" as="sourcePoint" />
            <Array as="points">
              <mxPoint x="1925" y="473" />
              <mxPoint x="1950" y="473" />
              <mxPoint x="1950" y="749" />
            </Array>
          </mxGeometry>
        </mxCell>
        <mxCell id="xhqMCZKZk4TDCaaSv1w_-185" value="Endpoint&amp;nbsp;&lt;div&gt;status active&lt;/div&gt;" style="edgeLabel;html=1;align=center;verticalAlign=middle;resizable=0;points=[];fontSize=12;" vertex="1" connectable="0" parent="xhqMCZKZk4TDCaaSv1w_-184">
          <mxGeometry x="-0.0285" y="2" relative="1" as="geometry">
            <mxPoint as="offset" />
          </mxGeometry>
        </mxCell>
        <mxCell id="xhqMCZKZk4TDCaaSv1w_-193" style="edgeStyle=orthogonalEdgeStyle;rounded=0;orthogonalLoop=1;jettySize=auto;html=1;" edge="1" parent="1" source="xhqMCZKZk4TDCaaSv1w_-186" target="xhqMCZKZk4TDCaaSv1w_-189">
          <mxGeometry relative="1" as="geometry" />
        </mxCell>
        <mxCell id="xhqMCZKZk4TDCaaSv1w_-200" value="create&lt;div&gt;scheduled&amp;nbsp;&lt;div&gt;data&lt;/div&gt;&lt;div&gt;monitoring&amp;nbsp;&lt;/div&gt;&lt;div&gt;job&lt;/div&gt;&lt;/div&gt;" style="edgeLabel;html=1;align=center;verticalAlign=middle;resizable=0;points=[];fontSize=12;" vertex="1" connectable="0" parent="xhqMCZKZk4TDCaaSv1w_-193">
          <mxGeometry x="-0.0665" relative="1" as="geometry">
            <mxPoint as="offset" />
          </mxGeometry>
        </mxCell>
        <mxCell id="xhqMCZKZk4TDCaaSv1w_-198" style="edgeStyle=orthogonalEdgeStyle;rounded=0;orthogonalLoop=1;jettySize=auto;html=1;entryX=1;entryY=0.5;entryDx=0;entryDy=0;exitX=0.5;exitY=1;exitDx=0;exitDy=0;exitPerimeter=0;" edge="1" parent="1" source="xhqMCZKZk4TDCaaSv1w_-186" target="xhqMCZKZk4TDCaaSv1w_-195">
          <mxGeometry relative="1" as="geometry" />
        </mxCell>
        <mxCell id="xhqMCZKZk4TDCaaSv1w_-201" value="create&lt;div&gt;scheduled&lt;/div&gt;&lt;div&gt;model&lt;div&gt;&lt;div&gt;monitoring&amp;nbsp;&lt;/div&gt;&lt;div&gt;job&lt;/div&gt;&lt;/div&gt;&lt;/div&gt;" style="edgeLabel;html=1;align=center;verticalAlign=middle;resizable=0;points=[];fontSize=12;" vertex="1" connectable="0" parent="xhqMCZKZk4TDCaaSv1w_-198">
          <mxGeometry x="0.4034" relative="1" as="geometry">
            <mxPoint as="offset" />
          </mxGeometry>
        </mxCell>
        <mxCell id="xhqMCZKZk4TDCaaSv1w_-186" value="Lambda function" style="outlineConnect=0;dashed=0;verticalLabelPosition=top;verticalAlign=bottom;align=center;html=1;shape=mxgraph.aws3.lambda_function;fillColor=#5294CF;gradientColor=none;labelPosition=center;" vertex="1" parent="1">
          <mxGeometry x="1715" y="724" width="50" height="48.88" as="geometry" />
        </mxCell>
        <mxCell id="xhqMCZKZk4TDCaaSv1w_-248" value="" style="group" vertex="1" connectable="0" parent="1">
          <mxGeometry x="180" y="308.5" width="150" height="140" as="geometry" />
        </mxCell>
        <mxCell id="xhqMCZKZk4TDCaaSv1w_-102" value="processing&lt;div&gt;EC2&lt;/div&gt;" style="sketch=0;points=[[0,0,0],[0.25,0,0],[0.5,0,0],[0.75,0,0],[1,0,0],[0,1,0],[0.25,1,0],[0.5,1,0],[0.75,1,0],[1,1,0],[0,0.25,0],[0,0.5,0],[0,0.75,0],[1,0.25,0],[1,0.5,0],[1,0.75,0]];outlineConnect=0;fontColor=#232F3E;fillColor=#ED7100;strokeColor=#ffffff;dashed=0;verticalLabelPosition=bottom;verticalAlign=top;align=center;html=1;fontSize=12;fontStyle=0;aspect=fixed;shape=mxgraph.aws4.resourceIcon;resIcon=mxgraph.aws4.compute;horizontal=1;fontFamily=Helvetica;labelBackgroundColor=none;labelPosition=center;" vertex="1" parent="xhqMCZKZk4TDCaaSv1w_-248">
          <mxGeometry x="85" y="43.379999999999995" width="50" height="50" as="geometry" />
        </mxCell>
        <mxCell id="xhqMCZKZk4TDCaaSv1w_-94" value="&lt;font color=&quot;#01a88d&quot;&gt;Data processing job&lt;/font&gt;" style="points=[[0,0],[0.25,0],[0.5,0],[0.75,0],[1,0],[1,0.25],[1,0.5],[1,0.75],[1,1],[0.75,1],[0.5,1],[0.25,1],[0,1],[0,0.75],[0,0.5],[0,0.25]];outlineConnect=0;gradientColor=none;html=1;whiteSpace=wrap;fontSize=12;fontStyle=0;container=0;pointerEvents=0;collapsible=0;recursiveResize=0;shape=mxgraph.aws4.group;grIcon=mxgraph.aws4.group_ec2_instance_contents;strokeColor=#01A88D;fillColor=none;verticalAlign=top;align=left;spacingLeft=30;fontColor=#D86613;dashed=0;strokeWidth=2;movable=1;resizable=1;rotatable=1;deletable=1;editable=1;locked=0;connectable=1;" vertex="1" parent="xhqMCZKZk4TDCaaSv1w_-248">
          <mxGeometry width="150" height="140" as="geometry" />
        </mxCell>
        <mxCell id="xhqMCZKZk4TDCaaSv1w_-76" value="" style="sketch=0;points=[[0,0,0],[0.25,0,0],[0.5,0,0],[0.75,0,0],[1,0,0],[0,1,0],[0.25,1,0],[0.5,1,0],[0.75,1,0],[1,1,0],[0,0.25,0],[0,0.5,0],[0,0.75,0],[1,0.25,0],[1,0.5,0],[1,0.75,0]];outlineConnect=0;fontColor=#232F3E;fillColor=#01A88D;strokeColor=#ffffff;dashed=0;verticalLabelPosition=bottom;verticalAlign=top;align=center;html=1;fontSize=12;fontStyle=0;aspect=fixed;shape=mxgraph.aws4.resourceIcon;resIcon=mxgraph.aws4.machine_learning;labelPosition=center;" vertex="1" parent="xhqMCZKZk4TDCaaSv1w_-248">
          <mxGeometry width="24" height="24" as="geometry" />
        </mxCell>
        <mxCell id="xhqMCZKZk4TDCaaSv1w_-230" value="&lt;span style=&quot;color: rgb(0, 0, 0);&quot;&gt;processing&amp;nbsp;&lt;/span&gt;&lt;div style=&quot;color: rgb(0, 0, 0);&quot;&gt;script&lt;/div&gt;" style="sketch=0;outlineConnect=0;fontColor=#232F3E;gradientColor=none;fillColor=#232F3D;strokeColor=none;dashed=0;verticalLabelPosition=bottom;verticalAlign=top;align=center;html=1;fontSize=12;fontStyle=0;aspect=fixed;pointerEvents=1;shape=mxgraph.aws4.source_code;strokeWidth=1;" vertex="1" parent="xhqMCZKZk4TDCaaSv1w_-248">
          <mxGeometry x="18" y="43.129999999999995" width="36" height="49.26" as="geometry" />
        </mxCell>
        <mxCell id="xhqMCZKZk4TDCaaSv1w_-249" value="" style="group" vertex="1" connectable="0" parent="1">
          <mxGeometry x="400" y="310" width="140" height="140" as="geometry" />
        </mxCell>
        <mxCell id="xhqMCZKZk4TDCaaSv1w_-95" value="&lt;font color=&quot;#01a88d&quot;&gt;Training job&lt;/font&gt;" style="points=[[0,0],[0.25,0],[0.5,0],[0.75,0],[1,0],[1,0.25],[1,0.5],[1,0.75],[1,1],[0.75,1],[0.5,1],[0.25,1],[0,1],[0,0.75],[0,0.5],[0,0.25]];outlineConnect=0;gradientColor=none;html=1;whiteSpace=wrap;fontSize=12;fontStyle=0;container=0;pointerEvents=0;collapsible=0;recursiveResize=0;shape=mxgraph.aws4.group;grIcon=mxgraph.aws4.group_ec2_instance_contents;strokeColor=#01A88D;fillColor=none;verticalAlign=top;align=left;spacingLeft=30;fontColor=#D86613;dashed=0;strokeWidth=2;movable=1;resizable=1;rotatable=1;deletable=1;editable=1;locked=0;connectable=1;" vertex="1" parent="xhqMCZKZk4TDCaaSv1w_-249">
          <mxGeometry width="140" height="140" as="geometry" />
        </mxCell>
        <mxCell id="xhqMCZKZk4TDCaaSv1w_-106" value="" style="sketch=0;points=[[0,0,0],[0.25,0,0],[0.5,0,0],[0.75,0,0],[1,0,0],[0,1,0],[0.25,1,0],[0.5,1,0],[0.75,1,0],[1,1,0],[0,0.25,0],[0,0.5,0],[0,0.75,0],[1,0.25,0],[1,0.5,0],[1,0.75,0]];outlineConnect=0;fontColor=#232F3E;fillColor=#01A88D;strokeColor=#ffffff;dashed=0;verticalLabelPosition=bottom;verticalAlign=top;align=center;html=1;fontSize=12;fontStyle=0;aspect=fixed;shape=mxgraph.aws4.resourceIcon;resIcon=mxgraph.aws4.machine_learning;labelPosition=center;" vertex="1" parent="xhqMCZKZk4TDCaaSv1w_-249">
          <mxGeometry width="22.588235294117645" height="22.588235294117645" as="geometry" />
        </mxCell>
        <mxCell id="xhqMCZKZk4TDCaaSv1w_-107" value="&lt;span style=&quot;background-color: initial;&quot;&gt;Training&amp;nbsp;&lt;/span&gt;&lt;div&gt;&lt;span style=&quot;background-color: initial;&quot;&gt;EC2&lt;/span&gt;&lt;/div&gt;" style="sketch=0;points=[[0,0,0],[0.25,0,0],[0.5,0,0],[0.75,0,0],[1,0,0],[0,1,0],[0.25,1,0],[0.5,1,0],[0.75,1,0],[1,1,0],[0,0.25,0],[0,0.5,0],[0,0.75,0],[1,0.25,0],[1,0.5,0],[1,0.75,0]];outlineConnect=0;fontColor=#232F3E;fillColor=#ED7100;strokeColor=#ffffff;dashed=0;verticalLabelPosition=bottom;verticalAlign=top;align=center;html=1;fontSize=12;fontStyle=0;aspect=fixed;shape=mxgraph.aws4.resourceIcon;resIcon=mxgraph.aws4.compute;horizontal=1;fontFamily=Helvetica;labelBackgroundColor=none;labelPosition=center;" vertex="1" parent="xhqMCZKZk4TDCaaSv1w_-249">
          <mxGeometry x="78.99764705882353" y="47.57111913357403" width="47.05882352941176" height="47.05882352941176" as="geometry" />
        </mxCell>
        <mxCell id="xhqMCZKZk4TDCaaSv1w_-244" value="&lt;div style=&quot;forced-color-adjust: none; color: rgb(0, 0, 0); font-family: Helvetica; font-size: 12px; font-style: normal; font-variant-ligatures: normal; font-variant-caps: normal; font-weight: 400; letter-spacing: normal; orphans: 2; text-align: center; text-indent: 0px; text-transform: none; widows: 2; word-spacing: 0px; -webkit-text-stroke-width: 0px; white-space: nowrap; background-color: rgb(251, 251, 251); text-decoration-thickness: initial; text-decoration-style: initial; text-decoration-color: initial;&quot;&gt;Training&amp;nbsp;&lt;/div&gt;&lt;div style=&quot;forced-color-adjust: none; color: rgb(0, 0, 0); font-family: Helvetica; font-size: 12px; font-style: normal; font-variant-ligatures: normal; font-variant-caps: normal; font-weight: 400; letter-spacing: normal; orphans: 2; text-align: center; text-indent: 0px; text-transform: none; widows: 2; word-spacing: 0px; -webkit-text-stroke-width: 0px; white-space: nowrap; background-color: rgb(251, 251, 251); text-decoration-thickness: initial; text-decoration-style: initial; text-decoration-color: initial;&quot;&gt;script&lt;/div&gt;" style="sketch=0;outlineConnect=0;fontColor=#232F3E;gradientColor=none;fillColor=#232F3D;strokeColor=none;dashed=0;verticalLabelPosition=bottom;verticalAlign=top;align=center;html=1;fontSize=12;fontStyle=0;aspect=fixed;pointerEvents=1;shape=mxgraph.aws4.source_code;strokeWidth=1;" vertex="1" parent="xhqMCZKZk4TDCaaSv1w_-249">
          <mxGeometry x="22.589999999999975" y="45.370000000000005" width="36" height="49.26" as="geometry" />
        </mxCell>
        <mxCell id="xhqMCZKZk4TDCaaSv1w_-251" value="" style="group" vertex="1" connectable="0" parent="1">
          <mxGeometry x="610" y="310" width="160" height="140" as="geometry" />
        </mxCell>
        <mxCell id="xhqMCZKZk4TDCaaSv1w_-96" value="&lt;font color=&quot;#01a88d&quot;&gt;Processing job (model Evaluation)&lt;/font&gt;" style="points=[[0,0],[0.25,0],[0.5,0],[0.75,0],[1,0],[1,0.25],[1,0.5],[1,0.75],[1,1],[0.75,1],[0.5,1],[0.25,1],[0,1],[0,0.75],[0,0.5],[0,0.25]];outlineConnect=0;gradientColor=none;html=1;whiteSpace=wrap;fontSize=12;fontStyle=0;container=0;pointerEvents=0;collapsible=0;recursiveResize=0;shape=mxgraph.aws4.group;grIcon=mxgraph.aws4.group_ec2_instance_contents;strokeColor=#01A88D;fillColor=none;verticalAlign=top;align=left;spacingLeft=30;fontColor=#D86613;dashed=0;strokeWidth=2;movable=1;resizable=1;rotatable=1;deletable=1;editable=1;locked=0;connectable=1;" vertex="1" parent="xhqMCZKZk4TDCaaSv1w_-251">
          <mxGeometry width="160" height="140" as="geometry" />
        </mxCell>
        <mxCell id="xhqMCZKZk4TDCaaSv1w_-110" value="" style="sketch=0;points=[[0,0,0],[0.25,0,0],[0.5,0,0],[0.75,0,0],[1,0,0],[0,1,0],[0.25,1,0],[0.5,1,0],[0.75,1,0],[1,1,0],[0,0.25,0],[0,0.5,0],[0,0.75,0],[1,0.25,0],[1,0.5,0],[1,0.75,0]];outlineConnect=0;fontColor=#232F3E;fillColor=#01A88D;strokeColor=#ffffff;dashed=0;verticalLabelPosition=bottom;verticalAlign=top;align=center;html=1;fontSize=12;fontStyle=0;aspect=fixed;shape=mxgraph.aws4.resourceIcon;resIcon=mxgraph.aws4.machine_learning;labelPosition=center;" vertex="1" parent="xhqMCZKZk4TDCaaSv1w_-251">
          <mxGeometry width="24" height="24" as="geometry" />
        </mxCell>
        <mxCell id="xhqMCZKZk4TDCaaSv1w_-113" value="&lt;div&gt;&lt;span style=&quot;background-color: initial;&quot;&gt;Evaluation&lt;/span&gt;&lt;/div&gt;&lt;div&gt;&lt;span style=&quot;background-color: initial;&quot;&gt;EC2&lt;/span&gt;&lt;/div&gt;" style="sketch=0;points=[[0,0,0],[0.25,0,0],[0.5,0,0],[0.75,0,0],[1,0,0],[0,1,0],[0.25,1,0],[0.5,1,0],[0.75,1,0],[1,1,0],[0,0.25,0],[0,0.5,0],[0,0.75,0],[1,0.25,0],[1,0.5,0],[1,0.75,0]];outlineConnect=0;fontColor=#232F3E;fillColor=#ED7100;strokeColor=#ffffff;dashed=0;verticalLabelPosition=bottom;verticalAlign=top;align=center;html=1;fontSize=12;fontStyle=0;aspect=fixed;shape=mxgraph.aws4.resourceIcon;resIcon=mxgraph.aws4.compute;horizontal=1;fontFamily=Helvetica;labelBackgroundColor=none;labelPosition=center;" vertex="1" parent="xhqMCZKZk4TDCaaSv1w_-251">
          <mxGeometry x="90" y="47.370000000000005" width="50" height="50" as="geometry" />
        </mxCell>
        <mxCell id="xhqMCZKZk4TDCaaSv1w_-250" value="&lt;div style=&quot;forced-color-adjust: none; color: rgb(0, 0, 0); font-family: Helvetica; font-size: 12px; font-style: normal; font-variant-ligatures: normal; font-variant-caps: normal; font-weight: 400; letter-spacing: normal; orphans: 2; text-align: center; text-indent: 0px; text-transform: none; widows: 2; word-spacing: 0px; -webkit-text-stroke-width: 0px; white-space: nowrap; background-color: rgb(251, 251, 251); text-decoration-thickness: initial; text-decoration-style: initial; text-decoration-color: initial;&quot;&gt;&lt;div&gt;Evaluation&amp;nbsp;&lt;/div&gt;&lt;div&gt;script&lt;/div&gt;&lt;/div&gt;" style="sketch=0;outlineConnect=0;fontColor=#232F3E;gradientColor=none;fillColor=#232F3D;strokeColor=none;dashed=0;verticalLabelPosition=bottom;verticalAlign=top;align=center;html=1;fontSize=12;fontStyle=0;aspect=fixed;pointerEvents=1;shape=mxgraph.aws4.source_code;strokeWidth=1;" vertex="1" parent="xhqMCZKZk4TDCaaSv1w_-251">
          <mxGeometry x="24" y="47.370000000000005" width="36" height="49.26" as="geometry" />
        </mxCell>
        <mxCell id="xhqMCZKZk4TDCaaSv1w_-253" value="" style="group" vertex="1" connectable="0" parent="1">
          <mxGeometry x="190" y="560" width="120" height="125.25" as="geometry" />
        </mxCell>
        <mxCell id="xhqMCZKZk4TDCaaSv1w_-156" value="&lt;font color=&quot;#01a88d&quot;&gt;&amp;nbsp;Data&lt;/font&gt;&lt;span style=&quot;color: rgb(1, 168, 141);&quot;&gt;&amp;nbsp;quality check&amp;nbsp;&lt;/span&gt;&lt;font color=&quot;#01a88d&quot;&gt;job&lt;/font&gt;" style="points=[[0,0],[0.25,0],[0.5,0],[0.75,0],[1,0],[1,0.25],[1,0.5],[1,0.75],[1,1],[0.75,1],[0.5,1],[0.25,1],[0,1],[0,0.75],[0,0.5],[0,0.25]];outlineConnect=0;gradientColor=none;html=1;whiteSpace=wrap;fontSize=12;fontStyle=0;container=0;pointerEvents=0;collapsible=0;recursiveResize=0;shape=mxgraph.aws4.group;grIcon=mxgraph.aws4.group_ec2_instance_contents;strokeColor=#01A88D;fillColor=none;verticalAlign=top;align=left;spacingLeft=30;fontColor=#D86613;dashed=0;strokeWidth=2;movable=1;resizable=1;rotatable=1;deletable=1;editable=1;locked=0;connectable=1;" vertex="1" parent="xhqMCZKZk4TDCaaSv1w_-253">
          <mxGeometry width="119.99999999999999" height="125.25" as="geometry" />
        </mxCell>
        <mxCell id="xhqMCZKZk4TDCaaSv1w_-157" value="" style="sketch=0;points=[[0,0,0],[0.25,0,0],[0.5,0,0],[0.75,0,0],[1,0,0],[0,1,0],[0.25,1,0],[0.5,1,0],[0.75,1,0],[1,1,0],[0,0.25,0],[0,0.5,0],[0,0.75,0],[1,0.25,0],[1,0.5,0],[1,0.75,0]];outlineConnect=0;fontColor=#232F3E;fillColor=#01A88D;strokeColor=#ffffff;dashed=0;verticalLabelPosition=bottom;verticalAlign=top;align=center;html=1;fontSize=12;fontStyle=0;aspect=fixed;shape=mxgraph.aws4.resourceIcon;resIcon=mxgraph.aws4.machine_learning;labelPosition=center;" vertex="1" parent="xhqMCZKZk4TDCaaSv1w_-253">
          <mxGeometry width="25.25" height="25.25" as="geometry" />
        </mxCell>
        <mxCell id="xhqMCZKZk4TDCaaSv1w_-158" value="&lt;div&gt;Quality check&amp;nbsp;&lt;span style=&quot;background-color: initial;&quot;&gt;EC2&lt;/span&gt;&lt;/div&gt;" style="sketch=0;points=[[0,0,0],[0.25,0,0],[0.5,0,0],[0.75,0,0],[1,0,0],[0,1,0],[0.25,1,0],[0.5,1,0],[0.75,1,0],[1,1,0],[0,0.25,0],[0,0.5,0],[0,0.75,0],[1,0.25,0],[1,0.5,0],[1,0.75,0]];outlineConnect=0;fontColor=#232F3E;fillColor=#ED7100;strokeColor=#ffffff;dashed=0;verticalLabelPosition=bottom;verticalAlign=top;align=center;html=1;fontSize=12;fontStyle=0;aspect=fixed;shape=mxgraph.aws4.resourceIcon;resIcon=mxgraph.aws4.compute;horizontal=1;fontFamily=Helvetica;labelBackgroundColor=none;labelPosition=center;" vertex="1" parent="xhqMCZKZk4TDCaaSv1w_-253">
          <mxGeometry x="36" y="47.75" width="49" height="49" as="geometry" />
        </mxCell>
        <mxCell id="xhqMCZKZk4TDCaaSv1w_-260" value="" style="group" vertex="1" connectable="0" parent="1">
          <mxGeometry x="1020" y="313.5" width="380" height="180" as="geometry" />
        </mxCell>
        <mxCell id="xhqMCZKZk4TDCaaSv1w_-123" value="inference model" style="rounded=1;arcSize=10;dashed=0;fillColor=none;gradientColor=none;strokeWidth=2;labelPosition=center;verticalLabelPosition=top;align=left;verticalAlign=bottom;" vertex="1" parent="xhqMCZKZk4TDCaaSv1w_-260">
          <mxGeometry x="24" y="46.5" width="266" height="120" as="geometry" />
        </mxCell>
        <mxCell id="xhqMCZKZk4TDCaaSv1w_-259" value="" style="edgeStyle=orthogonalEdgeStyle;rounded=0;orthogonalLoop=1;jettySize=auto;html=1;strokeColor=default;shape=link;" edge="1" parent="xhqMCZKZk4TDCaaSv1w_-260" source="xhqMCZKZk4TDCaaSv1w_-46" target="xhqMCZKZk4TDCaaSv1w_-255">
          <mxGeometry relative="1" as="geometry" />
        </mxCell>
        <mxCell id="xhqMCZKZk4TDCaaSv1w_-46" value="trained&lt;div&gt;model&lt;/div&gt;" style="sketch=0;outlineConnect=0;fontColor=#232F3E;gradientColor=none;fillColor=#01A88D;strokeColor=none;dashed=0;verticalLabelPosition=bottom;verticalAlign=top;align=center;html=1;fontSize=12;fontStyle=0;aspect=fixed;pointerEvents=1;shape=mxgraph.aws4.sagemaker_model;movable=1;resizable=1;rotatable=1;deletable=1;editable=1;locked=0;connectable=1;" vertex="1" parent="xhqMCZKZk4TDCaaSv1w_-260">
          <mxGeometry x="130" y="67.49000000000001" width="49.01" height="49.01" as="geometry" />
        </mxCell>
        <mxCell id="xhqMCZKZk4TDCaaSv1w_-116" value="&lt;font color=&quot;#01a88d&quot;&gt;Modelling job (creation inference model)&lt;/font&gt;" style="points=[[0,0],[0.25,0],[0.5,0],[0.75,0],[1,0],[1,0.25],[1,0.5],[1,0.75],[1,1],[0.75,1],[0.5,1],[0.25,1],[0,1],[0,0.75],[0,0.5],[0,0.25]];outlineConnect=0;gradientColor=none;html=1;whiteSpace=wrap;fontSize=12;fontStyle=0;container=0;pointerEvents=0;collapsible=0;recursiveResize=0;shape=mxgraph.aws4.group;grIcon=mxgraph.aws4.group_ec2_instance_contents;strokeColor=#01A88D;fillColor=none;verticalAlign=top;align=left;spacingLeft=30;fontColor=#D86613;dashed=0;strokeWidth=2;movable=1;resizable=1;rotatable=1;deletable=1;editable=1;locked=0;connectable=1;" vertex="1" parent="xhqMCZKZk4TDCaaSv1w_-260">
          <mxGeometry width="380" height="180" as="geometry" />
        </mxCell>
        <mxCell id="xhqMCZKZk4TDCaaSv1w_-125" value="&lt;div&gt;&lt;span style=&quot;background-color: initial;&quot;&gt;model&amp;nbsp;&lt;/span&gt;&lt;/div&gt;&lt;div&gt;&lt;span style=&quot;background-color: initial;&quot;&gt;creation EC2&lt;/span&gt;&lt;/div&gt;" style="sketch=0;points=[[0,0,0],[0.25,0,0],[0.5,0,0],[0.75,0,0],[1,0,0],[0,1,0],[0.25,1,0],[0.5,1,0],[0.75,1,0],[1,1,0],[0,0.25,0],[0,0.5,0],[0,0.75,0],[1,0.25,0],[1,0.5,0],[1,0.75,0]];outlineConnect=0;fontColor=#232F3E;fillColor=#ED7100;strokeColor=#ffffff;dashed=0;verticalLabelPosition=bottom;verticalAlign=top;align=center;html=1;fontSize=12;fontStyle=0;aspect=fixed;shape=mxgraph.aws4.resourceIcon;resIcon=mxgraph.aws4.compute;horizontal=1;fontFamily=Helvetica;labelBackgroundColor=none;labelPosition=center;" vertex="1" parent="xhqMCZKZk4TDCaaSv1w_-260">
          <mxGeometry x="310" y="70.5" width="50" height="50" as="geometry" />
        </mxCell>
        <mxCell id="xhqMCZKZk4TDCaaSv1w_-134" value="" style="sketch=0;points=[[0,0,0],[0.25,0,0],[0.5,0,0],[0.75,0,0],[1,0,0],[0,1,0],[0.25,1,0],[0.5,1,0],[0.75,1,0],[1,1,0],[0,0.25,0],[0,0.5,0],[0,0.75,0],[1,0.25,0],[1,0.5,0],[1,0.75,0]];outlineConnect=0;fontColor=#232F3E;fillColor=#01A88D;strokeColor=#ffffff;dashed=0;verticalLabelPosition=bottom;verticalAlign=top;align=center;html=1;fontSize=12;fontStyle=0;aspect=fixed;shape=mxgraph.aws4.resourceIcon;resIcon=mxgraph.aws4.machine_learning;labelPosition=center;" vertex="1" parent="xhqMCZKZk4TDCaaSv1w_-260">
          <mxGeometry width="24" height="24" as="geometry" />
        </mxCell>
        <mxCell id="xhqMCZKZk4TDCaaSv1w_-256" value="" style="edgeStyle=orthogonalEdgeStyle;rounded=0;orthogonalLoop=1;jettySize=auto;html=1;shape=link;" edge="1" parent="xhqMCZKZk4TDCaaSv1w_-260" source="xhqMCZKZk4TDCaaSv1w_-254" target="xhqMCZKZk4TDCaaSv1w_-46">
          <mxGeometry relative="1" as="geometry" />
        </mxCell>
        <mxCell id="xhqMCZKZk4TDCaaSv1w_-254" value="&lt;div style=&quot;forced-color-adjust: none; color: rgb(0, 0, 0); font-family: Helvetica; font-size: 12px; font-style: normal; font-variant-ligatures: normal; font-variant-caps: normal; font-weight: 400; letter-spacing: normal; orphans: 2; text-align: center; text-indent: 0px; text-transform: none; widows: 2; word-spacing: 0px; -webkit-text-stroke-width: 0px; white-space: nowrap; background-color: rgb(251, 251, 251); text-decoration-thickness: initial; text-decoration-style: initial; text-decoration-color: initial;&quot;&gt;preprocessing&lt;div&gt;script&lt;/div&gt;&lt;/div&gt;" style="sketch=0;outlineConnect=0;fontColor=#232F3E;gradientColor=none;fillColor=#232F3D;strokeColor=none;dashed=0;verticalLabelPosition=bottom;verticalAlign=top;align=center;html=1;fontSize=12;fontStyle=0;aspect=fixed;pointerEvents=1;shape=mxgraph.aws4.source_code;strokeWidth=1;" vertex="1" parent="xhqMCZKZk4TDCaaSv1w_-260">
          <mxGeometry x="49.99999999999977" y="67.49000000000001" width="36" height="49.26" as="geometry" />
        </mxCell>
        <mxCell id="xhqMCZKZk4TDCaaSv1w_-255" value="&lt;div style=&quot;forced-color-adjust: none; color: rgb(0, 0, 0); font-family: Helvetica; font-size: 12px; font-style: normal; font-variant-ligatures: normal; font-variant-caps: normal; font-weight: 400; letter-spacing: normal; orphans: 2; text-align: center; text-indent: 0px; text-transform: none; widows: 2; word-spacing: 0px; -webkit-text-stroke-width: 0px; white-space: nowrap; background-color: rgb(251, 251, 251); text-decoration-thickness: initial; text-decoration-style: initial; text-decoration-color: initial;&quot;&gt;postprocessing&lt;div&gt;script&lt;/div&gt;&lt;/div&gt;" style="sketch=0;outlineConnect=0;fontColor=#232F3E;gradientColor=none;fillColor=#232F3D;strokeColor=none;dashed=0;verticalLabelPosition=bottom;verticalAlign=top;align=center;html=1;fontSize=12;fontStyle=0;aspect=fixed;pointerEvents=1;shape=mxgraph.aws4.source_code;strokeWidth=1;" vertex="1" parent="xhqMCZKZk4TDCaaSv1w_-260">
          <mxGeometry x="223" y="67.49000000000001" width="36" height="49.26" as="geometry" />
        </mxCell>
        <mxCell id="xhqMCZKZk4TDCaaSv1w_-261" value="" style="group" vertex="1" connectable="0" parent="1">
          <mxGeometry x="1505" y="250" width="155" height="134.75" as="geometry" />
        </mxCell>
        <mxCell id="xhqMCZKZk4TDCaaSv1w_-130" value="&lt;font color=&quot;#01a88d&quot;&gt;Transform job&lt;/font&gt;" style="points=[[0,0],[0.25,0],[0.5,0],[0.75,0],[1,0],[1,0.25],[1,0.5],[1,0.75],[1,1],[0.75,1],[0.5,1],[0.25,1],[0,1],[0,0.75],[0,0.5],[0,0.25]];outlineConnect=0;gradientColor=none;html=1;whiteSpace=wrap;fontSize=12;fontStyle=0;container=0;pointerEvents=0;collapsible=0;recursiveResize=0;shape=mxgraph.aws4.group;grIcon=mxgraph.aws4.group_ec2_instance_contents;strokeColor=#01A88D;fillColor=none;verticalAlign=top;align=left;spacingLeft=30;fontColor=#D86613;dashed=0;strokeWidth=2;movable=1;resizable=1;rotatable=1;deletable=1;editable=1;locked=0;connectable=1;" vertex="1" parent="xhqMCZKZk4TDCaaSv1w_-261">
          <mxGeometry width="155" height="134.75" as="geometry" />
        </mxCell>
        <mxCell id="xhqMCZKZk4TDCaaSv1w_-117" value="" style="sketch=0;points=[[0,0,0],[0.25,0,0],[0.5,0,0],[0.75,0,0],[1,0,0],[0,1,0],[0.25,1,0],[0.5,1,0],[0.75,1,0],[1,1,0],[0,0.25,0],[0,0.5,0],[0,0.75,0],[1,0.25,0],[1,0.5,0],[1,0.75,0]];outlineConnect=0;fontColor=#232F3E;fillColor=#01A88D;strokeColor=#ffffff;dashed=0;verticalLabelPosition=bottom;verticalAlign=top;align=center;html=1;fontSize=12;fontStyle=0;aspect=fixed;shape=mxgraph.aws4.resourceIcon;resIcon=mxgraph.aws4.machine_learning;labelPosition=center;" vertex="1" parent="xhqMCZKZk4TDCaaSv1w_-261">
          <mxGeometry width="24" height="24" as="geometry" />
        </mxCell>
        <mxCell id="xhqMCZKZk4TDCaaSv1w_-135" value="&lt;div&gt;Transform&lt;/div&gt;&lt;div&gt;&lt;span style=&quot;background-color: initial;&quot;&gt;EC2&lt;/span&gt;&lt;/div&gt;" style="sketch=0;points=[[0,0,0],[0.25,0,0],[0.5,0,0],[0.75,0,0],[1,0,0],[0,1,0],[0.25,1,0],[0.5,1,0],[0.75,1,0],[1,1,0],[0,0.25,0],[0,0.5,0],[0,0.75,0],[1,0.25,0],[1,0.5,0],[1,0.75,0]];outlineConnect=0;fontColor=#232F3E;fillColor=#ED7100;strokeColor=#ffffff;dashed=0;verticalLabelPosition=bottom;verticalAlign=top;align=center;html=1;fontSize=12;fontStyle=0;aspect=fixed;shape=mxgraph.aws4.resourceIcon;resIcon=mxgraph.aws4.compute;horizontal=1;fontFamily=Helvetica;labelBackgroundColor=none;labelPosition=center;" vertex="1" parent="xhqMCZKZk4TDCaaSv1w_-261">
          <mxGeometry x="90.75" y="38.75" width="50" height="50" as="geometry" />
        </mxCell>
        <mxCell id="xhqMCZKZk4TDCaaSv1w_-137" value="&lt;span style=&quot;color: rgb(0, 0, 0); text-align: left;&quot;&gt;inference&lt;/span&gt;&lt;div&gt;&lt;span style=&quot;color: rgb(0, 0, 0); text-align: left;&quot;&gt;model&lt;/span&gt;&lt;/div&gt;" style="sketch=0;outlineConnect=0;fontColor=#232F3E;gradientColor=none;fillColor=#01A88D;strokeColor=none;dashed=0;verticalLabelPosition=bottom;verticalAlign=top;align=center;html=1;fontSize=12;fontStyle=0;aspect=fixed;pointerEvents=1;shape=mxgraph.aws4.sagemaker_model;movable=1;resizable=1;rotatable=1;deletable=1;editable=1;locked=0;connectable=1;" vertex="1" parent="xhqMCZKZk4TDCaaSv1w_-261">
          <mxGeometry x="14.25" y="39.75" width="49" height="49" as="geometry" />
        </mxCell>
        <mxCell id="xhqMCZKZk4TDCaaSv1w_-272" value="" style="group" vertex="1" connectable="0" parent="1">
          <mxGeometry x="1754" y="249.5" width="128.75" height="135.25" as="geometry" />
        </mxCell>
        <mxCell id="xhqMCZKZk4TDCaaSv1w_-143" value="&lt;font color=&quot;#01a88d&quot;&gt;&amp;nbsp;&lt;/font&gt;&lt;span style=&quot;color: rgb(1, 168, 141);&quot;&gt;model quality check&amp;nbsp;&lt;/span&gt;&lt;font color=&quot;#01a88d&quot;&gt;job&lt;/font&gt;" style="points=[[0,0],[0.25,0],[0.5,0],[0.75,0],[1,0],[1,0.25],[1,0.5],[1,0.75],[1,1],[0.75,1],[0.5,1],[0.25,1],[0,1],[0,0.75],[0,0.5],[0,0.25]];outlineConnect=0;gradientColor=none;html=1;whiteSpace=wrap;fontSize=12;fontStyle=0;container=0;pointerEvents=0;collapsible=0;recursiveResize=0;shape=mxgraph.aws4.group;grIcon=mxgraph.aws4.group_ec2_instance_contents;strokeColor=#01A88D;fillColor=none;verticalAlign=top;align=left;spacingLeft=30;fontColor=#D86613;dashed=0;strokeWidth=2;movable=1;resizable=1;rotatable=1;deletable=1;editable=1;locked=0;connectable=1;" vertex="1" parent="xhqMCZKZk4TDCaaSv1w_-272">
          <mxGeometry width="128.75" height="135.25" as="geometry" />
        </mxCell>
        <mxCell id="xhqMCZKZk4TDCaaSv1w_-144" value="" style="sketch=0;points=[[0,0,0],[0.25,0,0],[0.5,0,0],[0.75,0,0],[1,0,0],[0,1,0],[0.25,1,0],[0.5,1,0],[0.75,1,0],[1,1,0],[0,0.25,0],[0,0.5,0],[0,0.75,0],[1,0.25,0],[1,0.5,0],[1,0.75,0]];outlineConnect=0;fontColor=#232F3E;fillColor=#01A88D;strokeColor=#ffffff;dashed=0;verticalLabelPosition=bottom;verticalAlign=top;align=center;html=1;fontSize=12;fontStyle=0;aspect=fixed;shape=mxgraph.aws4.resourceIcon;resIcon=mxgraph.aws4.machine_learning;labelPosition=center;" vertex="1" parent="xhqMCZKZk4TDCaaSv1w_-272">
          <mxGeometry width="25.25" height="25.25" as="geometry" />
        </mxCell>
        <mxCell id="xhqMCZKZk4TDCaaSv1w_-145" value="&lt;div&gt;Quality check&amp;nbsp;&lt;span style=&quot;background-color: initial;&quot;&gt;EC2&lt;/span&gt;&lt;/div&gt;" style="sketch=0;points=[[0,0,0],[0.25,0,0],[0.5,0,0],[0.75,0,0],[1,0,0],[0,1,0],[0.25,1,0],[0.5,1,0],[0.75,1,0],[1,1,0],[0,0.25,0],[0,0.5,0],[0,0.75,0],[1,0.25,0],[1,0.5,0],[1,0.75,0]];outlineConnect=0;fontColor=#232F3E;fillColor=#ED7100;strokeColor=#ffffff;dashed=0;verticalLabelPosition=bottom;verticalAlign=top;align=center;html=1;fontSize=12;fontStyle=0;aspect=fixed;shape=mxgraph.aws4.resourceIcon;resIcon=mxgraph.aws4.compute;horizontal=1;fontFamily=Helvetica;labelBackgroundColor=none;labelPosition=center;" vertex="1" parent="xhqMCZKZk4TDCaaSv1w_-272">
          <mxGeometry x="36.50999999999999" y="50.129999999999995" width="55" height="55" as="geometry" />
        </mxCell>
        <mxCell id="xhqMCZKZk4TDCaaSv1w_-276" value="" style="group" vertex="1" connectable="0" parent="1">
          <mxGeometry x="1756" y="406" width="155" height="134.75" as="geometry" />
        </mxCell>
        <mxCell id="xhqMCZKZk4TDCaaSv1w_-277" value="&lt;font color=&quot;#01a88d&quot;&gt;Endpoint&lt;/font&gt;" style="points=[[0,0],[0.25,0],[0.5,0],[0.75,0],[1,0],[1,0.25],[1,0.5],[1,0.75],[1,1],[0.75,1],[0.5,1],[0.25,1],[0,1],[0,0.75],[0,0.5],[0,0.25]];outlineConnect=0;gradientColor=none;html=1;whiteSpace=wrap;fontSize=12;fontStyle=0;container=0;pointerEvents=0;collapsible=0;recursiveResize=0;shape=mxgraph.aws4.group;grIcon=mxgraph.aws4.group_ec2_instance_contents;strokeColor=#01A88D;fillColor=none;verticalAlign=top;align=left;spacingLeft=30;fontColor=#D86613;dashed=0;strokeWidth=2;movable=1;resizable=1;rotatable=1;deletable=1;editable=1;locked=0;connectable=1;" vertex="1" parent="xhqMCZKZk4TDCaaSv1w_-276">
          <mxGeometry width="155" height="134.75" as="geometry" />
        </mxCell>
        <mxCell id="xhqMCZKZk4TDCaaSv1w_-278" value="" style="sketch=0;points=[[0,0,0],[0.25,0,0],[0.5,0,0],[0.75,0,0],[1,0,0],[0,1,0],[0.25,1,0],[0.5,1,0],[0.75,1,0],[1,1,0],[0,0.25,0],[0,0.5,0],[0,0.75,0],[1,0.25,0],[1,0.5,0],[1,0.75,0]];outlineConnect=0;fontColor=#232F3E;fillColor=#01A88D;strokeColor=#ffffff;dashed=0;verticalLabelPosition=bottom;verticalAlign=top;align=center;html=1;fontSize=12;fontStyle=0;aspect=fixed;shape=mxgraph.aws4.resourceIcon;resIcon=mxgraph.aws4.machine_learning;labelPosition=center;" vertex="1" parent="xhqMCZKZk4TDCaaSv1w_-276">
          <mxGeometry width="24" height="24" as="geometry" />
        </mxCell>
        <mxCell id="xhqMCZKZk4TDCaaSv1w_-279" value="&lt;div&gt;Inference&lt;/div&gt;&lt;div&gt;&lt;span style=&quot;background-color: initial;&quot;&gt;EC2&lt;/span&gt;&lt;/div&gt;" style="sketch=0;points=[[0,0,0],[0.25,0,0],[0.5,0,0],[0.75,0,0],[1,0,0],[0,1,0],[0.25,1,0],[0.5,1,0],[0.75,1,0],[1,1,0],[0,0.25,0],[0,0.5,0],[0,0.75,0],[1,0.25,0],[1,0.5,0],[1,0.75,0]];outlineConnect=0;fontColor=#232F3E;fillColor=#ED7100;strokeColor=#ffffff;dashed=0;verticalLabelPosition=bottom;verticalAlign=top;align=center;html=1;fontSize=12;fontStyle=0;aspect=fixed;shape=mxgraph.aws4.resourceIcon;resIcon=mxgraph.aws4.compute;horizontal=1;fontFamily=Helvetica;labelBackgroundColor=none;labelPosition=center;" vertex="1" parent="xhqMCZKZk4TDCaaSv1w_-276">
          <mxGeometry x="90.75" y="38.75" width="50" height="50" as="geometry" />
        </mxCell>
        <mxCell id="xhqMCZKZk4TDCaaSv1w_-280" value="&lt;span style=&quot;color: rgb(0, 0, 0); text-align: left;&quot;&gt;inference&lt;/span&gt;&lt;div&gt;&lt;span style=&quot;color: rgb(0, 0, 0); text-align: left;&quot;&gt;model&lt;/span&gt;&lt;/div&gt;" style="sketch=0;outlineConnect=0;fontColor=#232F3E;gradientColor=none;fillColor=#01A88D;strokeColor=none;dashed=0;verticalLabelPosition=bottom;verticalAlign=top;align=center;html=1;fontSize=12;fontStyle=0;aspect=fixed;pointerEvents=1;shape=mxgraph.aws4.sagemaker_model;movable=1;resizable=1;rotatable=1;deletable=1;editable=1;locked=0;connectable=1;" vertex="1" parent="xhqMCZKZk4TDCaaSv1w_-276">
          <mxGeometry x="14.25" y="39.75" width="49" height="49" as="geometry" />
        </mxCell>
        <mxCell id="xhqMCZKZk4TDCaaSv1w_-281" value="" style="group" vertex="1" connectable="0" parent="1">
          <mxGeometry x="1439.25" y="690" width="125" height="110.19000000000005" as="geometry" />
        </mxCell>
        <mxCell id="xhqMCZKZk4TDCaaSv1w_-189" value="&lt;font color=&quot;#01a88d&quot;&gt;Data monitoring job&lt;/font&gt;" style="points=[[0,0],[0.25,0],[0.5,0],[0.75,0],[1,0],[1,0.25],[1,0.5],[1,0.75],[1,1],[0.75,1],[0.5,1],[0.25,1],[0,1],[0,0.75],[0,0.5],[0,0.25]];outlineConnect=0;gradientColor=none;html=1;whiteSpace=wrap;fontSize=12;fontStyle=0;container=0;pointerEvents=0;collapsible=0;recursiveResize=0;shape=mxgraph.aws4.group;grIcon=mxgraph.aws4.group_ec2_instance_contents;strokeColor=#01A88D;fillColor=none;verticalAlign=top;align=left;spacingLeft=30;fontColor=#D86613;dashed=0;strokeWidth=2;movable=1;resizable=1;rotatable=1;deletable=1;editable=1;locked=0;connectable=1;" vertex="1" parent="xhqMCZKZk4TDCaaSv1w_-281">
          <mxGeometry width="125" height="110.19" as="geometry" />
        </mxCell>
        <mxCell id="xhqMCZKZk4TDCaaSv1w_-190" value="" style="sketch=0;points=[[0,0,0],[0.25,0,0],[0.5,0,0],[0.75,0,0],[1,0,0],[0,1,0],[0.25,1,0],[0.5,1,0],[0.75,1,0],[1,1,0],[0,0.25,0],[0,0.5,0],[0,0.75,0],[1,0.25,0],[1,0.5,0],[1,0.75,0]];outlineConnect=0;fontColor=#232F3E;fillColor=#01A88D;strokeColor=#ffffff;dashed=0;verticalLabelPosition=bottom;verticalAlign=top;align=center;html=1;fontSize=12;fontStyle=0;aspect=fixed;shape=mxgraph.aws4.resourceIcon;resIcon=mxgraph.aws4.machine_learning;labelPosition=center;" vertex="1" parent="xhqMCZKZk4TDCaaSv1w_-281">
          <mxGeometry width="24" height="24" as="geometry" />
        </mxCell>
        <mxCell id="xhqMCZKZk4TDCaaSv1w_-191" value="&lt;div&gt;&lt;span style=&quot;background-color: initial;&quot;&gt;Inference EC2&lt;/span&gt;&lt;/div&gt;" style="sketch=0;points=[[0,0,0],[0.25,0,0],[0.5,0,0],[0.75,0,0],[1,0,0],[0,1,0],[0.25,1,0],[0.5,1,0],[0.75,1,0],[1,1,0],[0,0.25,0],[0,0.5,0],[0,0.75,0],[1,0.25,0],[1,0.5,0],[1,0.75,0]];outlineConnect=0;fontColor=#232F3E;fillColor=#ED7100;strokeColor=#ffffff;dashed=0;verticalLabelPosition=bottom;verticalAlign=top;align=center;html=1;fontSize=12;fontStyle=0;aspect=fixed;shape=mxgraph.aws4.resourceIcon;resIcon=mxgraph.aws4.compute;horizontal=1;fontFamily=Helvetica;labelBackgroundColor=none;labelPosition=center;" vertex="1" parent="xhqMCZKZk4TDCaaSv1w_-281">
          <mxGeometry x="43" y="44.190000000000055" width="40" height="40" as="geometry" />
        </mxCell>
        <mxCell id="xhqMCZKZk4TDCaaSv1w_-282" value="" style="group" vertex="1" connectable="0" parent="1">
          <mxGeometry x="1439.25" y="810" width="125" height="110" as="geometry" />
        </mxCell>
        <mxCell id="xhqMCZKZk4TDCaaSv1w_-195" value="&lt;font color=&quot;#01a88d&quot;&gt;Data monitoring job&lt;/font&gt;" style="points=[[0,0],[0.25,0],[0.5,0],[0.75,0],[1,0],[1,0.25],[1,0.5],[1,0.75],[1,1],[0.75,1],[0.5,1],[0.25,1],[0,1],[0,0.75],[0,0.5],[0,0.25]];outlineConnect=0;gradientColor=none;html=1;whiteSpace=wrap;fontSize=12;fontStyle=0;container=0;pointerEvents=0;collapsible=0;recursiveResize=0;shape=mxgraph.aws4.group;grIcon=mxgraph.aws4.group_ec2_instance_contents;strokeColor=#01A88D;fillColor=none;verticalAlign=top;align=left;spacingLeft=30;fontColor=#D86613;dashed=0;strokeWidth=2;movable=1;resizable=1;rotatable=1;deletable=1;editable=1;locked=0;connectable=1;" vertex="1" parent="xhqMCZKZk4TDCaaSv1w_-282">
          <mxGeometry y="0.44000000000005457" width="125" height="109.56" as="geometry" />
        </mxCell>
        <mxCell id="xhqMCZKZk4TDCaaSv1w_-196" value="" style="sketch=0;points=[[0,0,0],[0.25,0,0],[0.5,0,0],[0.75,0,0],[1,0,0],[0,1,0],[0.25,1,0],[0.5,1,0],[0.75,1,0],[1,1,0],[0,0.25,0],[0,0.5,0],[0,0.75,0],[1,0.25,0],[1,0.5,0],[1,0.75,0]];outlineConnect=0;fontColor=#232F3E;fillColor=#01A88D;strokeColor=#ffffff;dashed=0;verticalLabelPosition=bottom;verticalAlign=top;align=center;html=1;fontSize=12;fontStyle=0;aspect=fixed;shape=mxgraph.aws4.resourceIcon;resIcon=mxgraph.aws4.machine_learning;labelPosition=center;" vertex="1" parent="xhqMCZKZk4TDCaaSv1w_-282">
          <mxGeometry width="24" height="24" as="geometry" />
        </mxCell>
        <mxCell id="xhqMCZKZk4TDCaaSv1w_-197" value="&lt;div&gt;&lt;span style=&quot;background-color: initial;&quot;&gt;Inference EC2&lt;/span&gt;&lt;/div&gt;" style="sketch=0;points=[[0,0,0],[0.25,0,0],[0.5,0,0],[0.75,0,0],[1,0,0],[0,1,0],[0.25,1,0],[0.5,1,0],[0.75,1,0],[1,1,0],[0,0.25,0],[0,0.5,0],[0,0.75,0],[1,0.25,0],[1,0.5,0],[1,0.75,0]];outlineConnect=0;fontColor=#232F3E;fillColor=#ED7100;strokeColor=#ffffff;dashed=0;verticalLabelPosition=bottom;verticalAlign=top;align=center;html=1;fontSize=12;fontStyle=0;aspect=fixed;shape=mxgraph.aws4.resourceIcon;resIcon=mxgraph.aws4.compute;horizontal=1;fontFamily=Helvetica;labelBackgroundColor=none;labelPosition=center;" vertex="1" parent="xhqMCZKZk4TDCaaSv1w_-282">
          <mxGeometry x="43" y="43.190000000000055" width="40" height="40" as="geometry" />
        </mxCell>
        <mxCell id="xhqMCZKZk4TDCaaSv1w_-307" value="" style="group" vertex="1" connectable="0" parent="1">
          <mxGeometry x="1505" y="404.75" width="210" height="140" as="geometry" />
        </mxCell>
        <mxCell id="xhqMCZKZk4TDCaaSv1w_-118" value="&lt;font color=&quot;#01a88d&quot;&gt;Modelling job (registration inference model)&lt;/font&gt;" style="points=[[0,0],[0.25,0],[0.5,0],[0.75,0],[1,0],[1,0.25],[1,0.5],[1,0.75],[1,1],[0.75,1],[0.5,1],[0.25,1],[0,1],[0,0.75],[0,0.5],[0,0.25]];outlineConnect=0;gradientColor=none;html=1;whiteSpace=wrap;fontSize=12;fontStyle=0;container=0;pointerEvents=0;collapsible=0;recursiveResize=0;shape=mxgraph.aws4.group;grIcon=mxgraph.aws4.group_ec2_instance_contents;strokeColor=#01A88D;fillColor=none;verticalAlign=top;align=left;spacingLeft=30;fontColor=#D86613;dashed=0;strokeWidth=2;movable=1;resizable=1;rotatable=1;deletable=1;editable=1;locked=0;connectable=1;" vertex="1" parent="xhqMCZKZk4TDCaaSv1w_-307">
          <mxGeometry width="210" height="140" as="geometry" />
        </mxCell>
        <mxCell id="xhqMCZKZk4TDCaaSv1w_-119" value="" style="sketch=0;points=[[0,0,0],[0.25,0,0],[0.5,0,0],[0.75,0,0],[1,0,0],[0,1,0],[0.25,1,0],[0.5,1,0],[0.75,1,0],[1,1,0],[0,0.25,0],[0,0.5,0],[0,0.75,0],[1,0.25,0],[1,0.5,0],[1,0.75,0]];outlineConnect=0;fontColor=#232F3E;fillColor=#01A88D;strokeColor=#ffffff;dashed=0;verticalLabelPosition=bottom;verticalAlign=top;align=center;html=1;fontSize=12;fontStyle=0;aspect=fixed;shape=mxgraph.aws4.resourceIcon;resIcon=mxgraph.aws4.machine_learning;labelPosition=center;" vertex="1" parent="xhqMCZKZk4TDCaaSv1w_-307">
          <mxGeometry width="24" height="24" as="geometry" />
        </mxCell>
        <mxCell id="xhqMCZKZk4TDCaaSv1w_-120" value="&lt;div&gt;Registration&amp;nbsp;&lt;span style=&quot;background-color: initial;&quot;&gt;EC2&lt;/span&gt;&lt;/div&gt;" style="sketch=0;points=[[0,0,0],[0.25,0,0],[0.5,0,0],[0.75,0,0],[1,0,0],[0,1,0],[0.25,1,0],[0.5,1,0],[0.75,1,0],[1,1,0],[0,0.25,0],[0,0.5,0],[0,0.75,0],[1,0.25,0],[1,0.5,0],[1,0.75,0]];outlineConnect=0;fontColor=#232F3E;fillColor=#ED7100;strokeColor=#ffffff;dashed=0;verticalLabelPosition=top;verticalAlign=bottom;align=center;html=1;fontSize=12;fontStyle=0;aspect=fixed;shape=mxgraph.aws4.resourceIcon;resIcon=mxgraph.aws4.compute;horizontal=1;fontFamily=Helvetica;labelBackgroundColor=none;labelPosition=center;" vertex="1" parent="xhqMCZKZk4TDCaaSv1w_-307">
          <mxGeometry x="130" y="70" width="50" height="50" as="geometry" />
        </mxCell>
        <mxCell id="xhqMCZKZk4TDCaaSv1w_-37" value="models&amp;nbsp;&lt;span style=&quot;background-color: initial;&quot;&gt;registry&lt;/span&gt;" style="outlineConnect=0;dashed=0;verticalLabelPosition=top;verticalAlign=bottom;align=center;html=1;shape=mxgraph.aws3.requester;fillColor=#757575;gradientColor=none;labelPosition=center;" vertex="1" parent="xhqMCZKZk4TDCaaSv1w_-307">
          <mxGeometry x="34.25" y="70" width="40" height="51.5" as="geometry" />
        </mxCell>
        <mxCell id="xhqMCZKZk4TDCaaSv1w_-312" style="edgeStyle=orthogonalEdgeStyle;rounded=0;orthogonalLoop=1;jettySize=auto;html=1;" edge="1" parent="1" source="xhqMCZKZk4TDCaaSv1w_-37" target="xhqMCZKZk4TDCaaSv1w_-161">
          <mxGeometry relative="1" as="geometry" />
        </mxCell>
        <mxCell id="xhqMCZKZk4TDCaaSv1w_-313" value="&lt;span style=&quot;font-size: 12px;&quot;&gt;Model status approved&lt;/span&gt;" style="edgeLabel;html=1;align=center;verticalAlign=middle;resizable=0;points=[];" vertex="1" connectable="0" parent="xhqMCZKZk4TDCaaSv1w_-312">
          <mxGeometry x="0.1671" y="1" relative="1" as="geometry">
            <mxPoint as="offset" />
          </mxGeometry>
        </mxCell>
      </root>
    </mxGraphModel>
  </diagram>
</mxfile>
